<svg width="70" height="70" viewBox="0 0 70 70" fill="none" xmlns="http://www.w3.org/2000/svg">
<path d="M34.9999 5.83337C31.1697 5.83337 27.377 6.58779 23.8383 8.05355C20.2997 9.51932 17.0843 11.6677 14.376 14.3761C8.90616 19.8459 5.83325 27.2646 5.83325 35C5.83325 47.8917 14.2041 58.8292 25.7833 62.7084C27.2416 62.9417 27.7083 62.0375 27.7083 61.25V56.3209C19.6291 58.0709 17.9083 52.4125 17.9083 52.4125C16.5666 49.0292 14.6708 48.125 14.6708 48.125C12.0166 46.3167 14.8749 46.375 14.8749 46.375C17.7916 46.5792 19.3374 49.3792 19.3374 49.3792C21.8749 53.8125 26.1624 52.5 27.8249 51.8C28.0874 49.9042 28.8458 48.6209 29.6624 47.8917C23.1874 47.1625 16.3916 44.6542 16.3916 33.5417C16.3916 30.3042 17.4999 27.7084 19.3958 25.6375C19.1041 24.9084 18.0833 21.875 19.6874 17.9375C19.6874 17.9375 22.1374 17.15 27.7083 20.9125C30.0124 20.2709 32.5208 19.95 34.9999 19.95C37.4791 19.95 39.9874 20.2709 42.2916 20.9125C47.8624 17.15 50.3124 17.9375 50.3124 17.9375C51.9166 21.875 50.8958 24.9084 50.6041 25.6375C52.4999 27.7084 53.6083 30.3042 53.6083 33.5417C53.6083 44.6834 46.7833 47.1334 40.2791 47.8625C41.3291 48.7667 42.2916 50.5459 42.2916 53.2584V61.25C42.2916 62.0375 42.7583 62.9709 44.2458 62.7084C55.8249 58.8 64.1666 47.8917 64.1666 35C64.1666 31.1698 63.4122 27.3771 61.9464 23.8384C60.4806 20.2998 58.3322 17.0845 55.6239 14.3761C52.9155 11.6677 49.7002 9.51932 46.1615 8.05355C42.6229 6.58779 38.8301 5.83337 34.9999 5.83337Z" fill="#0FB1D6"/>
</svg>
