<svg width="125" height="125" viewBox="0 0 125 125" fill="none" xmlns="http://www.w3.org/2000/svg">
<g clip-path="url(#clip0_804_2)">
<path d="M24.5079 0.03125C11.0433 0.03125 0.0233154 11.051 0.0233154 24.5159V100.496C0.0233154 113.961 11.0431 124.977 24.5079 124.977H100.488C113.953 124.977 124.969 113.961 124.969 100.496V24.5159C124.969 11.0512 113.953 0.03125 100.488 0.03125H24.5079ZM30.6662 20.6497C37.1222 20.6497 41.0988 24.888 41.2216 30.4591C41.2216 35.9073 37.1219 40.2646 30.5413 40.2646H30.4202C24.0871 40.2646 19.9937 35.9075 19.9937 30.4591C19.9937 24.8881 24.2109 20.6497 30.6661 20.6497H30.6662ZM86.3012 46.6885C98.7173 46.6885 108.025 54.8037 108.025 72.243V104.799H89.1558V74.4258C89.1558 66.7933 86.4249 61.586 79.5963 61.586C74.3833 61.586 71.2761 65.0958 69.9118 68.4863C69.4134 69.6993 69.2909 71.3934 69.2909 73.0902V104.799H50.4218C50.4218 104.799 50.6694 53.3475 50.4218 48.02H69.2948V56.0605C71.8023 52.1918 76.2876 46.6884 86.3012 46.6884V46.6885ZM21.1067 48.0241H39.9758V104.799H21.1067V48.0241Z" fill="white"/>
</g>
<defs>
<clipPath id="clip0_804_2">
<rect width="125" height="125" fill="white"/>
</clipPath>
</defs>
</svg>
